# xmcd
#
# Track frame offsets:
#	150
#	17017
#	32207
#	44600
#	63035
#	86467
#	105170
#	126972
#	140382
#	151650
#	166480
#	177355
#	192665
#	210207
#	231435
#	252170
#
# Disc length: 3579 seconds
#
# Revision: 3
# Processed by: cddbd v1.4PL0 Copyright (c) Steve Scherf et al.
# Submitted via: audiograbber 1.81.03
#
DISCID=ce0df910
DTITLE=Various Artist - MooseThe Compilation
DYEAR=1991
DGENRE=
TTITLE0=Grievous Angels - Saturday Night In A Laundromat
TTITLE1=Bob`Snider - Old Nova Scotian
TTITLE2=Celtic Gales - Sittin On Top Of The World
TTITLE3=Pretty Green - I'll Follow The Rain
TTITLE4=Polka Dogs - Slag Heap Love
TTITLE5=Lazy Grace - You Don't Know How Much
TTITLE6=Allen`Baekeland - Drinkin Ex And Askin Why
TTITLE7=Cajun Ramblers - Venez Louisiane
TTITLE8=The`Rheostatics - Woodstuck
TTITLE9=Big Smoke - Clothes
TTITLE10=The`Bookmen - Huggin At My Pillow
TTITLE11=Donkey - Memory Haunts Me
TTITLE12=Lost and Profound - All Consuming Mistress
TTITLE13=Anne`Bourne - Evangeline
TTITLE14=The`Jack Family - You Are My Sunshine
TTITLE15=Positively Stompin' - Jump On My Wheels
EXTD=
EXTT0=
EXTT1=
EXTT2=
EXTT3=
EXTT4=
EXTT5=
EXTT6=
EXTT7=
EXTT8=
EXTT9=
EXTT10=
EXTT11=
EXTT12=
EXTT13=
EXTT14=
EXTT15=
PLAYORDER=
